<svg width="22" height="23" viewBox="0 0 22 23" fill="none" xmlns="http://www.w3.org/2000/svg">
<path d="M10.945 18.1C11.33 18.1 11.6554 17.9671 11.9213 17.7013C12.1871 17.4354 12.32 17.11 12.32 16.725C12.32 16.34 12.1871 16.0146 11.9213 15.7487C11.6554 15.4829 11.33 15.35 10.945 15.35C10.56 15.35 10.2346 15.4829 9.96875 15.7487C9.70292 16.0146 9.57 16.34 9.57 16.725C9.57 17.11 9.70292 17.4354 9.96875 17.7013C10.2346 17.9671 10.56 18.1 10.945 18.1ZM9.955 13.865H11.99C11.99 13.26 12.0588 12.7833 12.1962 12.435C12.3337 12.0867 12.7233 11.61 13.365 11.005C13.8417 10.5283 14.2175 10.0746 14.4925 9.64375C14.7675 9.21292 14.905 8.695 14.905 8.09C14.905 7.06333 14.5292 6.275 13.7775 5.725C13.0258 5.175 12.1367 4.9 11.11 4.9C10.065 4.9 9.21708 5.175 8.56625 5.725C7.91542 6.275 7.46167 6.935 7.205 7.705L9.02 8.42C9.11167 8.09 9.31792 7.7325 9.63875 7.3475C9.95958 6.9625 10.45 6.77 11.11 6.77C11.6967 6.77 12.1367 6.93042 12.43 7.25125C12.7233 7.57208 12.87 7.925 12.87 8.31C12.87 8.67667 12.76 9.02042 12.54 9.34125C12.32 9.66208 12.045 9.96 11.715 10.235C10.9083 10.95 10.4133 11.4908 10.23 11.8575C10.0467 12.2242 9.955 12.8933 9.955 13.865ZM11 22.5C9.47833 22.5 8.04833 22.2113 6.71 21.6337C5.37167 21.0562 4.2075 20.2725 3.2175 19.2825C2.2275 18.2925 1.44375 17.1283 0.86625 15.79C0.28875 14.4517 0 13.0217 0 11.5C0 9.97833 0.28875 8.54833 0.86625 7.21C1.44375 5.87167 2.2275 4.7075 3.2175 3.7175C4.2075 2.7275 5.37167 1.94375 6.71 1.36625C8.04833 0.78875 9.47833 0.5 11 0.5C12.5217 0.5 13.9517 0.78875 15.29 1.36625C16.6283 1.94375 17.7925 2.7275 18.7825 3.7175C19.7725 4.7075 20.5562 5.87167 21.1337 7.21C21.7113 8.54833 22 9.97833 22 11.5C22 13.0217 21.7113 14.4517 21.1337 15.79C20.5562 17.1283 19.7725 18.2925 18.7825 19.2825C17.7925 20.2725 16.6283 21.0562 15.29 21.6337C13.9517 22.2113 12.5217 22.5 11 22.5ZM11 20.3C13.4567 20.3 15.5375 19.4475 17.2425 17.7425C18.9475 16.0375 19.8 13.9567 19.8 11.5C19.8 9.04333 18.9475 6.9625 17.2425 5.2575C15.5375 3.5525 13.4567 2.7 11 2.7C8.54333 2.7 6.4625 3.5525 4.7575 5.2575C3.0525 6.9625 2.2 9.04333 2.2 11.5C2.2 13.9567 3.0525 16.0375 4.7575 17.7425C6.4625 19.4475 8.54333 20.3 11 20.3Z" fill="black"/>
</svg>
