<svg width="22" height="23" viewBox="0 0 22 23" fill="none" xmlns="http://www.w3.org/2000/svg">
<path d="M2.2 22.5C1.595 22.5 1.07708 22.2846 0.64625 21.8538C0.215417 21.4229 0 20.905 0 20.3V8.2C0 7.595 0.215417 7.07708 0.64625 6.64625C1.07708 6.21542 1.595 6 2.2 6H7.7V2.7C7.7 2.095 7.91542 1.57708 8.34625 1.14625C8.77708 0.715417 9.295 0.5 9.9 0.5H12.1C12.705 0.5 13.2229 0.715417 13.6537 1.14625C14.0846 1.57708 14.3 2.095 14.3 2.7V6H19.8C20.405 6 20.9229 6.21542 21.3538 6.64625C21.7846 7.07708 22 7.595 22 8.2V20.3C22 20.905 21.7846 21.4229 21.3538 21.8538C20.9229 22.2846 20.405 22.5 19.8 22.5H2.2ZM2.2 20.3H19.8V8.2H14.3C14.3 8.805 14.0846 9.32292 13.6537 9.75375C13.2229 10.1846 12.705 10.4 12.1 10.4H9.9C9.295 10.4 8.77708 10.1846 8.34625 9.75375C7.91542 9.32292 7.7 8.805 7.7 8.2H2.2V20.3ZM4.4 18.1H11V17.605C11 17.2933 10.9129 17.0046 10.7387 16.7388C10.5646 16.4729 10.3217 16.2667 10.01 16.12C9.64333 15.955 9.27208 15.8313 8.89625 15.7487C8.52042 15.6663 8.12167 15.625 7.7 15.625C7.27833 15.625 6.87958 15.6663 6.50375 15.7487C6.12792 15.8313 5.75667 15.955 5.39 16.12C5.07833 16.2667 4.83542 16.4729 4.66125 16.7388C4.48708 17.0046 4.4 17.2933 4.4 17.605V18.1ZM13.2 16.45H17.6V14.8H13.2V16.45ZM7.7 14.8C8.15833 14.8 8.54792 14.6396 8.86875 14.3188C9.18958 13.9979 9.35 13.6083 9.35 13.15C9.35 12.6917 9.18958 12.3021 8.86875 11.9812C8.54792 11.6604 8.15833 11.5 7.7 11.5C7.24167 11.5 6.85208 11.6604 6.53125 11.9812C6.21042 12.3021 6.05 12.6917 6.05 13.15C6.05 13.6083 6.21042 13.9979 6.53125 14.3188C6.85208 14.6396 7.24167 14.8 7.7 14.8ZM13.2 13.15H17.6V11.5H13.2V13.15ZM9.9 8.2H12.1V2.7H9.9V8.2Z" fill="black"/>
</svg>
