<svg width="20" height="22" viewBox="0 0 20 22" fill="none" xmlns="http://www.w3.org/2000/svg">
<path d="M19.2953 6.875C19.5846 6.875 19.8214 6.64297 19.8214 6.35938V4.64062C19.8214 4.35703 19.5846 4.125 19.2953 4.125H18.4184V2.0625C18.4184 0.923828 17.4757 0 16.3138 0H2.28315C1.12124 0 0.178558 0.923828 0.178558 2.0625V19.9375C0.178558 21.0762 1.12124 22 2.28315 22H16.3138C17.4757 22 18.4184 21.0762 18.4184 19.9375V17.875H19.2953C19.5846 17.875 19.8214 17.643 19.8214 17.3594V15.6406C19.8214 15.357 19.5846 15.125 19.2953 15.125H18.4184V12.375H19.2953C19.5846 12.375 19.8214 12.143 19.8214 11.8594V10.1406C19.8214 9.85703 19.5846 9.625 19.2953 9.625H18.4184V6.875H19.2953ZM9.29846 5.5C10.8462 5.5 12.1046 6.7332 12.1046 8.25C12.1046 9.7668 10.8462 11 9.29846 11C7.75071 11 6.49233 9.7668 6.49233 8.25C6.49233 6.7332 7.75071 5.5 9.29846 5.5ZM14.2092 15.675C14.2092 16.1305 13.7707 16.5 13.227 16.5H5.36989C4.8262 16.5 4.38774 16.1305 4.38774 15.675V14.85C4.38774 13.4836 5.7075 12.375 7.33417 12.375H7.5534C8.0927 12.5941 8.68023 12.7188 9.29846 12.7188C9.91668 12.7188 10.5086 12.5941 11.0435 12.375H11.2627C12.8894 12.375 14.2092 13.4836 14.2092 14.85V15.675Z" fill="#EF8D88"/>
</svg>
