<svg width="20" height="18" viewBox="0 0 20 18" fill="none" xmlns="http://www.w3.org/2000/svg">
<path d="M2.4 3H15.6L14.75 2H3.25L2.4 3ZM7 9.75L9 8.75L11 9.75V5H7V9.75ZM2 18C1.45 18 0.979167 17.8042 0.5875 17.4125C0.195833 17.0208 0 16.55 0 16V3.525C0 3.29167 0.0375 3.06667 0.1125 2.85C0.1875 2.63333 0.3 2.43333 0.45 2.25L1.7 0.725C1.88333 0.491667 2.1125 0.3125 2.3875 0.1875C2.6625 0.0625 2.95 0 3.25 0H14.75C15.05 0 15.3375 0.0625 15.6125 0.1875C15.8875 0.3125 16.1167 0.491667 16.3 0.725L17.55 2.25C17.7 2.43333 17.8125 2.63333 17.8875 2.85C17.9625 3.06667 18 3.29167 18 3.525V7C17.65 7 17.3042 7.025 16.9625 7.075C16.6208 7.125 16.3 7.225 16 7.375V5H13V10.125L11.075 12.05L9 11L5 13V5H2V16H9V18H2ZM11 18V14.925L16.525 9.425C16.675 9.275 16.8417 9.16667 17.025 9.1C17.2083 9.03333 17.3917 9 17.575 9C17.775 9 17.9667 9.0375 18.15 9.1125C18.3333 9.1875 18.5 9.3 18.65 9.45L19.575 10.375C19.7083 10.525 19.8125 10.6917 19.8875 10.875C19.9625 11.0583 20 11.2417 20 11.425C20 11.6083 19.9667 11.7958 19.9 11.9875C19.8333 12.1792 19.725 12.35 19.575 12.5L14.075 18H11ZM12.5 16.5H13.45L16.475 13.45L16.025 12.975L15.55 12.525L12.5 15.55V16.5ZM16.025 12.975L15.55 12.525L16.475 13.45L16.025 12.975Z" fill="#666666"/>
</svg>
