<svg width="24" height="22" viewBox="0 0 24 22" fill="none" xmlns="http://www.w3.org/2000/svg">
<path d="M0 4.20652V21.2133C0 21.7692 0.47625 22.1493 0.914167 21.943L6.66667 18.8571V0L0.838333 2.74754C0.590908 2.86418 0.378804 3.0655 0.229379 3.32555C0.0799536 3.5856 5.92587e-05 3.89245 0 4.20652ZM8 18.8571L16 22V3.14286L8 0V18.8571ZM23.0858 0.0569643L17.3333 3.14286V22L23.1617 19.2525C23.4091 19.1359 23.6213 18.9346 23.7707 18.6745C23.9201 18.4144 24 18.1076 24 17.7935V0.786696C24 0.230804 23.5238 -0.149286 23.0858 0.0569643Z" fill="#EF8D88"/>
</svg>
