<svg width="22" height="25" viewBox="0 0 22 25" fill="none" xmlns="http://www.w3.org/2000/svg">
<path d="M11 25C12.7246 25 14.1236 23.6011 14.1236 21.875H7.8765C7.8765 23.6011 9.27542 25 11 25ZM21.5171 17.6899C20.5738 16.6763 18.8086 15.1514 18.8086 10.1562C18.8086 6.3623 16.1485 3.3252 12.5616 2.58008V1.5625C12.5616 0.699707 11.8623 0 11 0C10.1377 0 9.43851 0.699707 9.43851 1.5625V2.58008C5.8516 3.3252 3.19144 6.3623 3.19144 10.1562C3.19144 15.1514 1.4263 16.6763 0.482944 17.6899C0.189975 18.0049 0.0600924 18.3813 0.0625338 18.75C0.0679049 19.5508 0.696323 20.3125 1.62992 20.3125H20.3702C21.3037 20.3125 21.9327 19.5508 21.9375 18.75C21.94 18.3813 21.8101 18.0044 21.5171 17.6899Z" fill="#EF8D88"/>
</svg>
