<svg width="16" height="21" viewBox="0 0 16 21" fill="none" xmlns="http://www.w3.org/2000/svg">
<path d="M5.2 14.1L8 12L10.75 14.1L9.7 10.7L12.5 8.5H9.1L8 5.1L6.9 8.5H3.5L6.25 10.7L5.2 14.1ZM8 20.5C5.68333 19.9167 3.77083 18.5875 2.2625 16.5125C0.754167 14.4375 0 12.1333 0 9.6V3.5L8 0.5L16 3.5V9.6C16 12.1333 15.2458 14.4375 13.7375 16.5125C12.2292 18.5875 10.3167 19.9167 8 20.5ZM8 18.4C9.73333 17.85 11.1667 16.75 12.3 15.1C13.4333 13.45 14 11.6167 14 9.6V4.875L8 2.625L2 4.875V9.6C2 11.6167 2.56667 13.45 3.7 15.1C4.83333 16.75 6.26667 17.85 8 18.4Z" fill="black"/>
</svg>
