<svg width="22" height="25" viewBox="0 0 22 25" fill="none" xmlns="http://www.w3.org/2000/svg">
<path d="M15.8889 18.889C16.3981 18.889 16.831 18.7108 17.1875 18.3543C17.544 17.9978 17.7222 17.5649 17.7222 17.0557C17.7222 16.5464 17.544 16.1135 17.1875 15.7571C16.831 15.4006 16.3981 15.2223 15.8889 15.2223C15.3796 15.2223 14.9468 15.4006 14.5903 15.7571C14.2338 16.1135 14.0556 16.5464 14.0556 17.0557C14.0556 17.5649 14.2338 17.9978 14.5903 18.3543C14.9468 18.7108 15.3796 18.889 15.8889 18.889ZM15.8889 22.5557C16.5204 22.5557 17.1009 22.408 17.6306 22.1126C18.1602 21.8172 18.588 21.4251 18.9139 20.9362C18.4657 20.6714 17.987 20.4677 17.4778 20.3251C16.9685 20.1825 16.4389 20.1112 15.8889 20.1112C15.3389 20.1112 14.8093 20.1825 14.3 20.3251C13.7907 20.4677 13.312 20.6714 12.8639 20.9362C13.1898 21.4251 13.6176 21.8172 14.1472 22.1126C14.6769 22.408 15.2574 22.5557 15.8889 22.5557ZM9.77778 25.0001C6.9463 24.2871 4.6088 22.6626 2.76528 20.1265C0.921759 17.5904 0 14.7742 0 11.6779V4.22233L9.77778 0.555664L19.5556 4.22233V11.1584C19.1685 10.9955 18.7713 10.8478 18.3639 10.7154C17.9565 10.583 17.5389 10.4862 17.1111 10.4251V5.93344L9.77778 3.18344L2.44444 5.93344V11.6779C2.44444 12.6353 2.57176 13.5927 2.82639 14.5501C3.08102 15.5075 3.4375 16.4191 3.89583 17.2848C4.35417 18.1506 4.90926 18.9501 5.56111 19.6834C6.21296 20.4168 6.93611 21.0279 7.73056 21.5168C7.95463 22.1686 8.25 22.7899 8.61667 23.3807C8.98333 23.9714 9.40093 24.501 9.86944 24.9696C9.84907 24.9696 9.8338 24.9746 9.82361 24.9848C9.81343 24.995 9.79815 25.0001 9.77778 25.0001ZM15.8889 25.0001C14.1981 25.0001 12.7569 24.4043 11.5653 23.2126C10.3736 22.0209 9.77778 20.5797 9.77778 18.889C9.77778 17.1983 10.3736 15.7571 11.5653 14.5654C12.7569 13.3737 14.1981 12.7779 15.8889 12.7779C17.5796 12.7779 19.0208 13.3737 20.2125 14.5654C21.4042 15.7571 22 17.1983 22 18.889C22 20.5797 21.4042 22.0209 20.2125 23.2126C19.0208 24.4043 17.5796 25.0001 15.8889 25.0001Z" fill="black"/>
</svg>
