<svg width="20" height="26" viewBox="0 0 20 26" fill="none" xmlns="http://www.w3.org/2000/svg">
<path d="M8.6875 17.4375L15.75 10.375L13.9687 8.59375L8.6875 13.875L6.0625 11.25L4.28125 13.0313L8.6875 17.4375ZM10 25.5C7.10417 24.7708 4.71354 23.1094 2.82812 20.5156C0.942708 17.9219 0 15.0417 0 11.875V4.25L10 0.5L20 4.25V11.875C20 15.0417 19.0573 17.9219 17.1719 20.5156C15.2865 23.1094 12.8958 24.7708 10 25.5ZM10 22.875C12.1667 22.1875 13.9583 20.8125 15.375 18.75C16.7917 16.6875 17.5 14.3958 17.5 11.875V5.96875L10 3.15625L2.5 5.96875V11.875C2.5 14.3958 3.20833 16.6875 4.625 18.75C6.04167 20.8125 7.83333 22.1875 10 22.875Z" fill="#75CEA3"/>
</svg>
