<svg width="26" height="25" viewBox="0 0 26 25" fill="none" xmlns="http://www.w3.org/2000/svg">
<path d="M25.1807 15.504L22.9377 14.2641C23.1641 13.0948 23.1641 11.8952 22.9377 10.7258L25.1807 9.4859C25.4387 9.34477 25.5545 9.05243 25.4703 8.78026C24.8858 6.98591 23.8907 5.36293 22.5902 4.01213C22.3902 3.80548 22.0637 3.75507 21.811 3.8962L19.568 5.13612C18.6256 4.35991 17.541 3.76011 16.3668 3.36697V0.892181C16.3668 0.609924 16.1615 0.362949 15.8719 0.302465C13.9396 -0.110839 11.9599 -0.0906782 10.1224 0.302465C9.83279 0.362949 9.62745 0.609924 9.62745 0.892181V3.37201C8.45859 3.77019 7.37397 4.36999 6.42624 5.14116L4.18855 3.90124C3.93056 3.76011 3.60939 3.80548 3.40931 4.01717C2.10882 5.36293 1.11371 6.98591 0.52928 8.7853C0.439773 9.05747 0.560871 9.34981 0.818863 9.49094L3.06181 10.7309C2.83541 11.9002 2.83541 13.0998 3.06181 14.2691L0.818863 15.5091C0.560871 15.6502 0.445038 15.9425 0.52928 16.2147C1.11371 18.0091 2.10882 19.632 3.40931 20.9828C3.60939 21.1895 3.93583 21.2399 4.18855 21.0988L6.43151 19.8588C7.37397 20.6351 8.45859 21.2348 9.63271 21.628V24.1078C9.63271 24.3901 9.83805 24.6371 10.1276 24.6975C12.0599 25.1108 14.0396 25.0907 15.8772 24.6975C16.1668 24.6371 16.3721 24.3901 16.3721 24.1078V21.628C17.541 21.2298 18.6256 20.63 19.5733 19.8588L21.8163 21.0988C22.0742 21.2399 22.3954 21.1945 22.5955 20.9828C23.896 19.6371 24.8911 18.0141 25.4755 16.2147C25.5545 15.9375 25.4387 15.6452 25.1807 15.504ZM12.9971 16.5272C10.6752 16.5272 8.78502 14.7177 8.78502 12.495C8.78502 10.2722 10.6752 8.46272 12.9971 8.46272C15.3191 8.46272 17.2093 10.2722 17.2093 12.495C17.2093 14.7177 15.3191 16.5272 12.9971 16.5272Z" fill="#EF8D88"/>
</svg>
