<svg width="312" height="216" viewBox="0 0 312 216" fill="none" xmlns="http://www.w3.org/2000/svg">
<g filter="url(#filter0_f_18_8)">
<path d="M115.385 165.385C107.212 165.385 99.399 163.942 91.9471 161.058C84.4952 158.173 77.8045 153.926 71.875 148.317C64.1827 141.106 58.6138 132.572 55.1683 122.716C51.7228 112.861 50 102.644 50 92.0673C50 79.5673 53.0449 69.4311 59.1346 61.6587C65.2244 53.8862 74.1186 50 85.8173 50C88.0609 50 90.1843 50.2003 92.1875 50.601C94.1907 51.0016 96.234 51.6026 98.3173 52.4038L155.769 73.7981L213.221 52.4038C215.304 51.6026 217.348 51.0016 219.351 50.601C221.354 50.2003 223.478 50 225.721 50C237.42 50 246.314 53.8862 252.404 61.6587C258.494 69.4311 261.538 79.5673 261.538 92.0673C261.538 102.644 259.816 112.861 256.37 122.716C252.925 132.572 247.356 141.106 239.663 148.317C233.734 153.926 227.043 158.173 219.591 161.058C212.139 163.942 204.327 165.385 196.154 165.385C185.577 165.385 176.603 162.981 169.231 158.173L158.173 150.962H153.365L142.308 158.173C134.936 162.981 125.962 165.385 115.385 165.385ZM115.385 146.154C121.314 146.154 126.843 144.752 131.971 141.947C137.099 139.143 141.827 135.737 146.154 131.731H165.385C169.712 135.737 174.439 139.143 179.567 141.947C184.696 144.752 190.224 146.154 196.154 146.154C201.923 146.154 207.492 145.152 212.861 143.149C218.229 141.146 222.997 138.061 227.163 133.894C232.612 128.446 236.498 122.035 238.822 114.663C241.146 107.292 242.308 99.7596 242.308 92.0673C242.308 85.4968 240.946 80.008 238.221 75.601C235.497 71.1939 231.17 69.0705 225.24 69.2308C224.76 69.2308 222.997 69.5513 219.952 70.1923L155.769 94.2308L91.5865 70.1923C90.7853 69.8718 89.9439 69.6314 89.0625 69.4712C88.1811 69.3109 87.2596 69.2308 86.2981 69.2308C80.3686 69.2308 76.0417 71.3942 73.3173 75.7212C70.5929 80.0481 69.2308 85.4968 69.2308 92.0673C69.2308 99.9199 70.3926 107.532 72.7163 114.904C75.0401 122.276 79.0064 128.686 84.6154 134.135C88.7821 138.141 93.5096 141.146 98.7981 143.149C104.087 145.152 109.615 146.154 115.385 146.154ZM127.163 131.731C133.093 131.731 137.74 130.409 141.106 127.764C144.471 125.12 146.154 121.474 146.154 116.827C146.154 108.974 140.986 101.482 130.649 94.351C120.313 87.2196 109.375 83.6538 97.8365 83.6538C91.9071 83.6538 87.2596 84.976 83.8942 87.6202C80.5288 90.2644 78.8462 93.9103 78.8462 98.5577C78.8462 106.41 84.0144 113.902 94.351 121.034C104.688 128.165 115.625 131.731 127.163 131.731ZM125.721 117.308C119.631 117.308 113.021 115.304 105.889 111.298C98.758 107.292 94.5513 103.205 93.2692 99.0385C94.0705 98.7179 94.992 98.4375 96.0337 98.1971C97.0753 97.9567 98.1571 97.8365 99.2788 97.8365C105.369 97.8365 111.979 99.8798 119.111 103.966C126.242 108.053 130.449 112.179 131.731 116.346C130.929 116.667 130.008 116.907 128.966 117.067C127.925 117.228 126.843 117.308 125.721 117.308ZM184.375 131.971C195.913 131.971 206.851 128.365 217.188 121.154C227.524 113.942 232.692 106.41 232.692 98.5577C232.692 93.9103 231.05 90.2244 227.764 87.5C224.479 84.7756 219.792 83.4135 213.702 83.4135C202.163 83.4135 191.226 87.0192 180.889 94.2308C170.553 101.442 165.385 108.974 165.385 116.827C165.385 121.474 167.067 125.16 170.433 127.885C173.798 130.609 178.446 131.971 184.375 131.971ZM185.817 117.308C184.696 117.308 183.654 117.228 182.692 117.067C181.731 116.907 180.849 116.667 180.048 116.346C181.33 112.179 185.537 108.093 192.668 104.087C199.8 100.08 206.41 98.0769 212.5 98.0769C213.622 98.0769 214.663 98.157 215.625 98.3173C216.587 98.4776 217.468 98.7179 218.269 99.0385C216.987 103.205 212.78 107.292 205.649 111.298C198.518 115.304 191.907 117.308 185.817 117.308Z" fill="#DA5C56"/>
</g>
<path d="M115.385 165.385C107.212 165.385 99.399 163.942 91.9471 161.058C84.4952 158.173 77.8045 153.926 71.875 148.317C64.1827 141.106 58.6138 132.572 55.1683 122.716C51.7228 112.861 50 102.644 50 92.0673C50 79.5673 53.0449 69.4311 59.1346 61.6587C65.2244 53.8862 74.1186 50 85.8173 50C88.0609 50 90.1843 50.2003 92.1875 50.601C94.1907 51.0016 96.234 51.6026 98.3173 52.4038L155.769 73.7981L213.221 52.4038C215.304 51.6026 217.348 51.0016 219.351 50.601C221.354 50.2003 223.478 50 225.721 50C237.42 50 246.314 53.8862 252.404 61.6587C258.494 69.4311 261.538 79.5673 261.538 92.0673C261.538 102.644 259.816 112.861 256.37 122.716C252.925 132.572 247.356 141.106 239.663 148.317C233.734 153.926 227.043 158.173 219.591 161.058C212.139 163.942 204.327 165.385 196.154 165.385C185.577 165.385 176.603 162.981 169.231 158.173L158.173 150.962H153.365L142.308 158.173C134.936 162.981 125.962 165.385 115.385 165.385ZM115.385 146.154C121.314 146.154 126.843 144.752 131.971 141.947C137.099 139.143 141.827 135.737 146.154 131.731H165.385C169.712 135.737 174.439 139.143 179.567 141.947C184.696 144.752 190.224 146.154 196.154 146.154C201.923 146.154 207.492 145.152 212.861 143.149C218.229 141.146 222.997 138.061 227.163 133.894C232.612 128.446 236.498 122.035 238.822 114.663C241.146 107.292 242.308 99.7596 242.308 92.0673C242.308 85.4968 240.946 80.008 238.221 75.601C235.497 71.1939 231.17 69.0705 225.24 69.2308C224.76 69.2308 222.997 69.5513 219.952 70.1923L155.769 94.2308L91.5865 70.1923C90.7853 69.8718 89.9439 69.6314 89.0625 69.4712C88.1811 69.3109 87.2596 69.2308 86.2981 69.2308C80.3686 69.2308 76.0417 71.3942 73.3173 75.7212C70.5929 80.0481 69.2308 85.4968 69.2308 92.0673C69.2308 99.9199 70.3926 107.532 72.7163 114.904C75.0401 122.276 79.0064 128.686 84.6154 134.135C88.7821 138.141 93.5096 141.146 98.7981 143.149C104.087 145.152 109.615 146.154 115.385 146.154ZM127.163 131.731C133.093 131.731 137.74 130.409 141.106 127.764C144.471 125.12 146.154 121.474 146.154 116.827C146.154 108.974 140.986 101.482 130.649 94.351C120.313 87.2196 109.375 83.6538 97.8365 83.6538C91.9071 83.6538 87.2596 84.976 83.8942 87.6202C80.5288 90.2644 78.8462 93.9103 78.8462 98.5577C78.8462 106.41 84.0144 113.902 94.351 121.034C104.688 128.165 115.625 131.731 127.163 131.731ZM125.721 117.308C119.631 117.308 113.021 115.304 105.889 111.298C98.758 107.292 94.5513 103.205 93.2692 99.0385C94.0705 98.7179 94.992 98.4375 96.0337 98.1971C97.0753 97.9567 98.1571 97.8365 99.2788 97.8365C105.369 97.8365 111.979 99.8798 119.111 103.966C126.242 108.053 130.449 112.179 131.731 116.346C130.929 116.667 130.008 116.907 128.966 117.067C127.925 117.228 126.843 117.308 125.721 117.308ZM184.375 131.971C195.913 131.971 206.851 128.365 217.188 121.154C227.524 113.942 232.692 106.41 232.692 98.5577C232.692 93.9103 231.05 90.2244 227.764 87.5C224.479 84.7756 219.792 83.4135 213.702 83.4135C202.163 83.4135 191.226 87.0192 180.889 94.2308C170.553 101.442 165.385 108.974 165.385 116.827C165.385 121.474 167.067 125.16 170.433 127.885C173.798 130.609 178.446 131.971 184.375 131.971ZM185.817 117.308C184.696 117.308 183.654 117.228 182.692 117.067C181.731 116.907 180.849 116.667 180.048 116.346C181.33 112.179 185.537 108.093 192.668 104.087C199.8 100.08 206.41 98.0769 212.5 98.0769C213.622 98.0769 214.663 98.157 215.625 98.3173C216.587 98.4776 217.468 98.7179 218.269 99.0385C216.987 103.205 212.78 107.292 205.649 111.298C198.518 115.304 191.907 117.308 185.817 117.308Z" fill="#DA5C56"/>
<defs>
<filter id="filter0_f_18_8" x="0" y="0" width="311.538" height="215.385" filterUnits="userSpaceOnUse" color-interpolation-filters="sRGB">
<feFlood flood-opacity="0" result="BackgroundImageFix"/>
<feBlend mode="normal" in="SourceGraphic" in2="BackgroundImageFix" result="shape"/>
<feGaussianBlur stdDeviation="25" result="effect1_foregroundBlur_18_8"/>
</filter>
</defs>
</svg>
